<svg xmlns="http://www.w3.org/2000/svg" width="20" height="35" fill="none">
  <path fill="#FBF2E9" stroke="#212529" stroke-linejoin="round" stroke-width="1.5" d="M6.41 22.066c-.188-1.288-.107-2.431.23-3.431a9.991 9.991 0 0 1 1.407-2.776 25.017 25.017 0 0 1 1.919-2.306c.656-.719 1.2-1.412 1.637-2.069.469-.687.7-1.38.7-2.068 0-.688-.125-1.206-.375-1.644a2.329 2.329 0 0 0-1.125-.987c-.469-.22-1.012-.332-1.637-.332-.844 0-1.607.207-2.294.613-.656.375-1.313.894-1.969 1.55L1.11 5.135a13.857 13.857 0 0 1 3.932-3.057C6.54 1.266 8.209.853 10.047.853c1.656 0 3.15.282 4.494.844 1.343.563 2.406 1.444 3.18 2.638.782 1.193 1.17 2.712 1.17 4.562 0 1.162-.232 2.194-.7 3.106a11.8 11.8 0 0 1-1.732 2.444c-.687.75-1.356 1.506-2.012 2.256-.656.75-1.188 1.55-1.594 2.4-.406.844-.544 1.838-.419 2.963H6.397h.012Zm2.993 11.431c-1.156 0-2.137-.425-2.95-1.269-.781-.844-1.169-1.869-1.169-3.056 0-1.256.388-2.288 1.17-3.106.812-.844 1.793-1.269 2.95-1.269 1.218 0 2.218.425 2.993 1.269.781.812 1.169 1.85 1.169 3.106 0 1.256-.388 2.212-1.17 3.056-.78.844-1.78 1.269-2.993 1.269Z"/>
</svg>