<svg width="24" height="24" viewBox="0 0 24 24" fill="#8c7421">
<path d="M6.64277 3.30457C8.57952 3.02479 10.6904 3.82619 12 5.64003C13.3097 3.82619 15.4205 3.02479 17.3572 3.30457C18.5255 3.47335 19.6347 4.03694 20.4495 5.00808C21.2665 5.98166 21.75 7.3191 21.75 8.97244C21.75 12.3293 19.2673 15.2805 16.999 17.3019C15.841 18.3338 14.6864 19.1694 13.823 19.7465C13.3906 20.0355 13.0293 20.2608 12.7748 20.4148C12.6475 20.4917 12.5467 20.5509 12.477 20.5913C12.4421 20.6115 12.415 20.6271 12.3961 20.6378L12.3741 20.6502L12.3679 20.6537L12.3649 20.6553C12.1381 20.7817 11.8619 20.7817 11.6351 20.6553L12 20.0001C11.6351 20.6553 11.634 20.6547 11.634 20.6547L11.6321 20.6537L11.6259 20.6502L11.6039 20.6378C11.585 20.6271 11.5579 20.6115 11.523 20.5913C11.4533 20.5509 11.3525 20.4917 11.2252 20.4148C10.9707 20.2608 10.6094 20.0355 10.177 19.7465C9.3136 19.1694 8.15905 18.3338 7.00103 17.3019C4.73273 15.2805 2.25 12.3293 2.25 8.97244C2.25 7.3191 2.73353 5.98166 3.55047 5.00808C4.36535 4.03694 5.47447 3.47335 6.64277 3.30457Z" fill="#8c7421"/>
</svg>
